<svg xmlns="http://www.w3.org/2000/svg" viewBox="0 0 400 330.05"><defs><style>.cls-1{fill:#009f0d;}.cls-2{fill:#f4b900;}.cls-3{fill:#f4cd00;}</style></defs><g id="Capa_2" data-name="Capa 2"><g id="Capa_1-2" data-name="Capa 1"><g id="Capa_2-2" data-name="Capa 2"><g id="svg3204"><rect class="cls-1" y="310.05" width="400" height="20"/></g></g><g id="Capa_2-3" data-name="Capa 2"><g id="svg3204-2" data-name="svg3204"><rect class="cls-2" x="374.83" width="10.53" height="310"/><path id="rect3240-3-3-4" class="cls-3" d="M383.83,0c8.86,0,16,8.92,16,20V310h-20V0Z"/></g></g><g id="Capa_2-4" data-name="Capa 2"><g id="svg3204-3" data-name="svg3204"><rect class="cls-2" x="14.87" y="0.53" width="10.24" height="310"/><path id="rect3240-3-3" class="cls-3" d="M16.11.53c-8.86,0-16,8.92-16,20v290h20V.53Z"/></g></g><g id="Capa_2-5" data-name="Capa 2"><g id="svg3204-4" data-name="svg3204"><path id="rect2987" class="cls-2" d="M25,.05v310H75V.05Zm25,10a20,20,0,1,1-20,20A20,20,0,0,1,50,10.05Zm0,50a20,20,0,1,1-20,20A20,20,0,0,1,50,60.05Zm0,50a20,20,0,1,1-20,20A20,20,0,0,1,50,110.05Zm0,50a20,20,0,1,1-20,20A20,20,0,0,1,50,160.05Zm0,50a20,20,0,1,1-20,20A20,20,0,0,1,50,210.05Zm0,50a20,20,0,1,1-20,20A20,20,0,0,1,50,260.05Z"/></g></g><g id="Capa_2-6" data-name="Capa 2"><g id="svg3204-5" data-name="svg3204"><path id="rect2987-2" data-name="rect2987" class="cls-2" d="M75,.05v310h50V.05Zm25,10a20,20,0,1,1-20,20A20,20,0,0,1,100,10.05Zm0,50a20,20,0,1,1-20,20A20,20,0,0,1,100,60.05Zm0,50a20,20,0,1,1-20,20A20,20,0,0,1,100,110.05Zm0,50a20,20,0,1,1-20,20A20,20,0,0,1,100,160.05Zm0,50a20,20,0,1,1-20,20A20,20,0,0,1,100,210.05Zm0,50a20,20,0,1,1-20,20A20,20,0,0,1,100,260.05Z"/></g></g><g id="Capa_2-7" data-name="Capa 2"><g id="svg3204-6" data-name="svg3204"><path id="rect2987-3" data-name="rect2987" class="cls-2" d="M125,.05v310h50V.05Zm25,10a20,20,0,1,1-20,20A20,20,0,0,1,150,10.05Zm0,50a20,20,0,1,1-20,20A20,20,0,0,1,150,60.05Zm0,50a20,20,0,1,1-20,20A20,20,0,0,1,150,110.05Zm0,50a20,20,0,1,1-20,20A20,20,0,0,1,150,160.05Zm0,50a20,20,0,1,1-20,20A20,20,0,0,1,150,210.05Zm0,50a20,20,0,1,1-20,20A20,20,0,0,1,150,260.05Z"/></g></g><g id="Capa_2-8" data-name="Capa 2"><g id="svg3204-7" data-name="svg3204"><path id="rect2987-4" data-name="rect2987" class="cls-2" d="M175,.05v310h50V.05Zm25,10a20,20,0,1,1-20,20A20,20,0,0,1,200,10.05Zm0,50a20,20,0,1,1-20,20A20,20,0,0,1,200,60.05Zm0,50a20,20,0,1,1-20,20A20,20,0,0,1,200,110.05Zm0,50a20,20,0,1,1-20,20A20,20,0,0,1,200,160.05Zm0,50a20,20,0,1,1-20,20A20,20,0,0,1,200,210.05Zm0,50a20,20,0,1,1-20,20A20,20,0,0,1,200,260.05Z"/></g></g><g id="Capa_2-9" data-name="Capa 2"><g id="svg3204-8" data-name="svg3204"><path id="rect2987-5" data-name="rect2987" class="cls-2" d="M225,.05v310h50V.05Zm25,10a20,20,0,1,1-20,20A20,20,0,0,1,250,10.05Zm0,50a20,20,0,1,1-20,20A20,20,0,0,1,250,60.05Zm0,50a20,20,0,1,1-20,20A20,20,0,0,1,250,110.05Zm0,50a20,20,0,1,1-20,20A20,20,0,0,1,250,160.05Zm0,50a20,20,0,1,1-20,20A20,20,0,0,1,250,210.05Zm0,50a20,20,0,1,1-20,20A20,20,0,0,1,250,260.05Z"/></g></g><g id="Capa_2-10" data-name="Capa 2"><g id="svg3204-9" data-name="svg3204"><path id="rect2987-6" data-name="rect2987" class="cls-2" d="M275,.05v310h50V.05Zm25,10a20,20,0,1,1-20,20A20,20,0,0,1,300,10.05Zm0,50a20,20,0,1,1-20,20A20,20,0,0,1,300,60.05Zm0,50a20,20,0,1,1-20,20A20,20,0,0,1,300,110.05Zm0,50a20,20,0,1,1-20,20A20,20,0,0,1,300,160.05Zm0,50a20,20,0,1,1-20,20A20,20,0,0,1,300,210.05Zm0,50a20,20,0,1,1-20,20A20,20,0,0,1,300,260.05Z"/></g></g><g id="Capa_2-11" data-name="Capa 2"><g id="svg3204-10" data-name="svg3204"><path id="rect2987-7" data-name="rect2987" class="cls-2" d="M325,.05v310h50V.05Zm25,10a20,20,0,1,1-20,20A20,20,0,0,1,350,10.05Zm0,50a20,20,0,1,1-20,20A20,20,0,0,1,350,60.05Zm0,50a20,20,0,1,1-20,20A20,20,0,0,1,350,110.05Zm0,50a20,20,0,1,1-20,20A20,20,0,0,1,350,160.05Zm0,50a20,20,0,1,1-20,20A20,20,0,0,1,350,210.05Zm0,50a20,20,0,1,1-20,20A20,20,0,0,1,350,260.05Z"/></g></g></g></g></svg>