<svg xmlns="http://www.w3.org/2000/svg" viewBox="0 0 550.02 480"><defs><style>.cls-1{fill:#009f0d;}.cls-2{fill:#f4b900;}.cls-3{fill:#f4cd00;}</style></defs><g id="Capa_2" data-name="Capa 2"><g id="Capa_1-2" data-name="Capa 1"><g id="Capa_2-2" data-name="Capa 2"><g id="svg3204"><rect class="cls-1" y="460" width="550" height="20"/></g></g><g id="Capa_2-3" data-name="Capa 2"><g id="svg3204-2" data-name="svg3204"><path id="rect2987" class="cls-2" d="M475,150V460h50V150Zm25,10c26.29.45,26.29,39.55,0,40C473.71,199.55,473.71,160.45,500,160Zm0,50c26.29.45,26.29,39.55,0,40C473.71,249.55,473.71,210.45,500,210Zm0,50c26.29.45,26.29,39.55,0,40C473.71,299.55,473.71,260.45,500,260Zm0,50c26.29.45,26.29,39.55,0,40C473.71,349.55,473.71,310.45,500,310Zm0,50c26.29.45,26.29,39.55,0,40C473.71,399.55,473.71,360.45,500,360Zm0,50c26.29.45,26.29,39.55,0,40C473.71,449.55,473.71,410.45,500,410Z"/></g></g><g id="Capa_2-4" data-name="Capa 2"><g id="svg3204-3" data-name="svg3204"><path id="rect2987-2" data-name="rect2987" class="cls-2" d="M475,0V310h50V0Zm25,10c26.29.45,26.29,39.55,0,40C473.71,49.55,473.71,10.45,500,10Zm0,50c26.29.45,26.29,39.55,0,40C473.71,99.55,473.71,60.45,500,60Zm0,50c26.29.45,26.29,39.55,0,40C473.71,149.55,473.71,110.45,500,110Zm0,50c26.29.45,26.29,39.55,0,40C473.71,199.55,473.71,160.45,500,160Zm0,50c26.29.45,26.29,39.55,0,40C473.71,249.55,473.71,210.45,500,210Zm0,50c26.29.45,26.29,39.55,0,40C473.71,299.55,473.71,260.45,500,260Z"/></g></g><g id="Capa_2-5" data-name="Capa 2"><g id="svg3204-4" data-name="svg3204"><path id="rect2987-3" data-name="rect2987" class="cls-2" d="M425,150V460h50V150Zm25,10c26.29.45,26.29,39.55,0,40C423.71,199.55,423.71,160.45,450,160Zm0,50c26.29.45,26.29,39.55,0,40C423.71,249.55,423.71,210.45,450,210Zm0,50c26.29.45,26.29,39.55,0,40C423.71,299.55,423.71,260.45,450,260Zm0,50c26.29.45,26.29,39.55,0,40C423.71,349.55,423.71,310.45,450,310Zm0,50c26.29.45,26.29,39.55,0,40C423.71,399.55,423.71,360.45,450,360Zm0,50c26.29.45,26.29,39.55,0,40C423.71,449.55,423.71,410.45,450,410Z"/></g></g><g id="Capa_2-6" data-name="Capa 2"><g id="svg3204-5" data-name="svg3204"><path id="rect2987-4" data-name="rect2987" class="cls-2" d="M425,0V310h50V0Zm25,10c26.29.45,26.29,39.55,0,40C423.71,49.55,423.71,10.45,450,10Zm0,50c26.29.45,26.29,39.55,0,40C423.71,99.55,423.71,60.45,450,60Zm0,50c26.29.45,26.29,39.55,0,40C423.71,149.55,423.71,110.45,450,110Zm0,50c26.29.45,26.29,39.55,0,40C423.71,199.55,423.71,160.45,450,160Zm0,50c26.29.45,26.29,39.55,0,40C423.71,249.55,423.71,210.45,450,210Zm0,50c26.29.45,26.29,39.55,0,40C423.71,299.55,423.71,260.45,450,260Z"/></g></g><g id="Capa_2-7" data-name="Capa 2"><g id="svg3204-6" data-name="svg3204"><path id="rect2987-5" data-name="rect2987" class="cls-2" d="M375,150V460h50V150Zm25,10c26.29.45,26.29,39.55,0,40C373.71,199.55,373.71,160.45,400,160Zm0,50c26.29.45,26.29,39.55,0,40C373.71,249.55,373.71,210.45,400,210Zm0,50c26.29.45,26.29,39.55,0,40C373.71,299.55,373.71,260.45,400,260Zm0,50c26.29.45,26.29,39.55,0,40C373.71,349.55,373.71,310.45,400,310Zm0,50c26.29.45,26.29,39.55,0,40C373.71,399.55,373.71,360.45,400,360Zm0,50c26.29.45,26.29,39.55,0,40C373.71,449.55,373.71,410.45,400,410Z"/></g></g><g id="Capa_2-8" data-name="Capa 2"><g id="svg3204-7" data-name="svg3204"><path id="rect2987-6" data-name="rect2987" class="cls-2" d="M375,0V310h50V0Zm25,10c26.29.45,26.29,39.55,0,40C373.71,49.55,373.71,10.45,400,10Zm0,50c26.29.45,26.29,39.55,0,40C373.71,99.55,373.71,60.45,400,60Zm0,50c26.29.45,26.29,39.55,0,40C373.71,149.55,373.71,110.45,400,110Zm0,50c26.29.45,26.29,39.55,0,40C373.71,199.55,373.71,160.45,400,160Zm0,50c26.29.45,26.29,39.55,0,40C373.71,249.55,373.71,210.45,400,210Zm0,50c26.29.45,26.29,39.55,0,40C373.71,299.55,373.71,260.45,400,260Z"/></g></g><g id="Capa_2-9" data-name="Capa 2"><g id="svg3204-8" data-name="svg3204"><path id="rect2987-7" data-name="rect2987" class="cls-2" d="M325,150V460h50V150Zm25,10c26.29.45,26.29,39.55,0,40C323.71,199.55,323.71,160.45,350,160Zm0,50c26.29.45,26.29,39.55,0,40C323.71,249.55,323.71,210.45,350,210Zm0,50c26.29.45,26.29,39.55,0,40C323.71,299.55,323.71,260.45,350,260Zm0,50c26.29.45,26.29,39.55,0,40C323.71,349.55,323.71,310.45,350,310Zm0,50c26.29.45,26.29,39.55,0,40C323.71,399.55,323.71,360.45,350,360Zm0,50c26.29.45,26.29,39.55,0,40C323.71,449.55,323.71,410.45,350,410Z"/></g></g><g id="Capa_2-10" data-name="Capa 2"><g id="svg3204-9" data-name="svg3204"><path id="rect2987-8" data-name="rect2987" class="cls-2" d="M325,0V310h50V0Zm25,10c26.29.45,26.29,39.55,0,40C323.71,49.55,323.71,10.45,350,10Zm0,50c26.29.45,26.29,39.55,0,40C323.71,99.55,323.71,60.45,350,60Zm0,50c26.29.45,26.29,39.55,0,40C323.71,149.55,323.71,110.45,350,110Zm0,50c26.29.45,26.29,39.55,0,40C323.71,199.55,323.71,160.45,350,160Zm0,50c26.29.45,26.29,39.55,0,40C323.71,249.55,323.71,210.45,350,210Zm0,50c26.29.45,26.29,39.55,0,40C323.71,299.55,323.71,260.45,350,260Z"/></g></g><g id="Capa_2-11" data-name="Capa 2"><g id="svg3204-10" data-name="svg3204"><path id="rect2987-9" data-name="rect2987" class="cls-2" d="M275,150V460h50V150Zm25,10c26.29.45,26.29,39.55,0,40C273.71,199.55,273.71,160.45,300,160Zm0,50c26.29.45,26.29,39.55,0,40C273.71,249.55,273.71,210.45,300,210Zm0,50c26.29.45,26.29,39.55,0,40C273.71,299.55,273.71,260.45,300,260Zm0,50c26.29.45,26.29,39.55,0,40C273.71,349.55,273.71,310.45,300,310Zm0,50c26.29.45,26.29,39.55,0,40C273.71,399.55,273.71,360.45,300,360Zm0,50c26.29.45,26.29,39.55,0,40C273.71,449.55,273.71,410.45,300,410Z"/></g></g><g id="Capa_2-12" data-name="Capa 2"><g id="svg3204-11" data-name="svg3204"><path id="rect2987-10" data-name="rect2987" class="cls-2" d="M275,0V310h50V0Zm25,10c26.29.45,26.29,39.55,0,40C273.71,49.55,273.71,10.45,300,10Zm0,50c26.29.45,26.29,39.55,0,40C273.71,99.55,273.71,60.45,300,60Zm0,50c26.29.45,26.29,39.55,0,40C273.71,149.55,273.71,110.45,300,110Zm0,50c26.29.45,26.29,39.55,0,40C273.71,199.55,273.71,160.45,300,160Zm0,50c26.29.45,26.29,39.55,0,40C273.71,249.55,273.71,210.45,300,210Zm0,50c26.29.45,26.29,39.55,0,40C273.71,299.55,273.71,260.45,300,260Z"/></g></g><g id="Capa_2-13" data-name="Capa 2"><g id="svg3204-12" data-name="svg3204"><path id="rect2987-11" data-name="rect2987" class="cls-2" d="M225,150V460h50V150Zm25,10c26.29.45,26.29,39.55,0,40C223.71,199.55,223.71,160.45,250,160Zm0,50c26.29.45,26.29,39.55,0,40C223.71,249.55,223.71,210.45,250,210Zm0,50c26.29.45,26.29,39.55,0,40C223.71,299.55,223.71,260.45,250,260Zm0,50c26.29.45,26.29,39.55,0,40C223.71,349.55,223.71,310.45,250,310Zm0,50c26.29.45,26.29,39.55,0,40C223.71,399.55,223.71,360.45,250,360Zm0,50c26.29.45,26.29,39.55,0,40C223.71,449.55,223.71,410.45,250,410Z"/></g></g><g id="Capa_2-14" data-name="Capa 2"><g id="svg3204-13" data-name="svg3204"><path id="rect2987-12" data-name="rect2987" class="cls-2" d="M225,0V310h50V0Zm25,10c26.29.45,26.29,39.55,0,40C223.71,49.55,223.71,10.45,250,10Zm0,50c26.29.45,26.29,39.55,0,40C223.71,99.55,223.71,60.45,250,60Zm0,50c26.29.45,26.29,39.55,0,40C223.71,149.55,223.71,110.45,250,110Zm0,50c26.29.45,26.29,39.55,0,40C223.71,199.55,223.71,160.45,250,160Zm0,50c26.29.45,26.29,39.55,0,40C223.71,249.55,223.71,210.45,250,210Zm0,50c26.29.45,26.29,39.55,0,40C223.71,299.55,223.71,260.45,250,260Z"/></g></g><g id="Capa_2-15" data-name="Capa 2"><g id="svg3204-14" data-name="svg3204"><path id="rect2987-13" data-name="rect2987" class="cls-2" d="M175,150V460h50V150Zm25,10c26.29.45,26.29,39.55,0,40C173.71,199.55,173.71,160.45,200,160Zm0,50c26.29.45,26.29,39.55,0,40C173.71,249.55,173.71,210.45,200,210Zm0,50c26.29.45,26.29,39.55,0,40C173.71,299.55,173.71,260.45,200,260Zm0,50c26.29.45,26.29,39.55,0,40C173.71,349.55,173.71,310.45,200,310Zm0,50c26.29.45,26.29,39.55,0,40C173.71,399.55,173.71,360.45,200,360Zm0,50c26.29.45,26.29,39.55,0,40C173.71,449.55,173.71,410.45,200,410Z"/></g></g><g id="Capa_2-16" data-name="Capa 2"><g id="svg3204-15" data-name="svg3204"><path id="rect2987-14" data-name="rect2987" class="cls-2" d="M175,0V310h50V0Zm25,10c26.29.45,26.29,39.55,0,40C173.71,49.55,173.71,10.45,200,10Zm0,50c26.29.45,26.29,39.55,0,40C173.71,99.55,173.71,60.45,200,60Zm0,50c26.29.45,26.29,39.55,0,40C173.71,149.55,173.71,110.45,200,110Zm0,50c26.29.45,26.29,39.55,0,40C173.71,199.55,173.71,160.45,200,160Zm0,50c26.29.45,26.29,39.55,0,40C173.71,249.55,173.71,210.45,200,210Zm0,50c26.29.45,26.29,39.55,0,40C173.71,299.55,173.71,260.45,200,260Z"/></g></g><g id="Capa_2-17" data-name="Capa 2"><g id="svg3204-16" data-name="svg3204"><path id="rect2987-15" data-name="rect2987" class="cls-2" d="M125,150V460h50V150Zm25,10c26.29.45,26.29,39.55,0,40C123.71,199.55,123.71,160.45,150,160Zm0,50c26.29.45,26.29,39.55,0,40C123.71,249.55,123.71,210.45,150,210Zm0,50c26.29.45,26.29,39.55,0,40C123.71,299.55,123.71,260.45,150,260Zm0,50c26.29.45,26.29,39.55,0,40C123.71,349.55,123.71,310.45,150,310Zm0,50c26.29.45,26.29,39.55,0,40C123.71,399.55,123.71,360.45,150,360Zm0,50c26.29.45,26.29,39.55,0,40C123.71,449.55,123.71,410.45,150,410Z"/></g></g><g id="Capa_2-18" data-name="Capa 2"><g id="svg3204-17" data-name="svg3204"><path id="rect2987-16" data-name="rect2987" class="cls-2" d="M125,0V310h50V0Zm25,10c26.29.45,26.29,39.55,0,40C123.71,49.55,123.71,10.45,150,10Zm0,50c26.29.45,26.29,39.55,0,40C123.71,99.55,123.71,60.45,150,60Zm0,50c26.29.45,26.29,39.55,0,40C123.71,149.55,123.71,110.45,150,110Zm0,50c26.29.45,26.29,39.55,0,40C123.71,199.55,123.71,160.45,150,160Zm0,50c26.29.45,26.29,39.55,0,40C123.71,249.55,123.71,210.45,150,210Zm0,50c26.29.45,26.29,39.55,0,40C123.71,299.55,123.71,260.45,150,260Z"/></g></g><g id="Capa_2-19" data-name="Capa 2"><g id="svg3204-18" data-name="svg3204"><path id="rect2987-17" data-name="rect2987" class="cls-2" d="M75,150V460h50V150Zm25,10c26.29.45,26.29,39.55,0,40C73.71,199.55,73.71,160.45,100,160Zm0,50c26.29.45,26.29,39.55,0,40C73.71,249.55,73.71,210.45,100,210Zm0,50c26.29.45,26.29,39.55,0,40C73.71,299.55,73.71,260.45,100,260Zm0,50c26.29.45,26.29,39.55,0,40C73.71,349.55,73.71,310.45,100,310Zm0,50c26.29.45,26.29,39.55,0,40C73.71,399.55,73.71,360.45,100,360Zm0,50c26.29.45,26.29,39.55,0,40C73.71,449.55,73.71,410.45,100,410Z"/></g></g><g id="Capa_2-20" data-name="Capa 2"><g id="svg3204-19" data-name="svg3204"><path id="rect2987-18" data-name="rect2987" class="cls-2" d="M75,0V310h50V0Zm25,10c26.29.45,26.29,39.55,0,40C73.71,49.55,73.71,10.45,100,10Zm0,50c26.29.45,26.29,39.55,0,40C73.71,99.55,73.71,60.45,100,60Zm0,50c26.29.45,26.29,39.55,0,40C73.71,149.55,73.71,110.45,100,110Zm0,50c26.29.45,26.29,39.55,0,40C73.71,199.55,73.71,160.45,100,160Zm0,50c26.29.45,26.29,39.55,0,40C73.71,249.55,73.71,210.45,100,210Zm0,50c26.29.45,26.29,39.55,0,40C73.71,299.55,73.71,260.45,100,260Z"/></g></g><g id="Capa_2-21" data-name="Capa 2"><g id="svg3204-20" data-name="svg3204"><path id="rect2987-19" data-name="rect2987" class="cls-2" d="M25,150V460H75V150Zm25,10c26.29.45,26.29,39.55,0,40C23.71,199.55,23.71,160.45,50,160Zm0,50c26.29.45,26.29,39.55,0,40C23.71,249.55,23.71,210.45,50,210Zm0,50c26.29.45,26.29,39.55,0,40C23.71,299.55,23.71,260.45,50,260Zm0,50c26.29.45,26.29,39.55,0,40C23.71,349.55,23.71,310.45,50,310Zm0,50c26.29.45,26.29,39.55,0,40C23.71,399.55,23.71,360.45,50,360Zm0,50c26.29.45,26.29,39.55,0,40C23.71,449.55,23.71,410.45,50,410Z"/></g></g><g id="Capa_2-22" data-name="Capa 2"><g id="svg3204-21" data-name="svg3204"><path id="rect2987-20" data-name="rect2987" class="cls-2" d="M25,0V310H75V0ZM50,10c26.29.45,26.29,39.55,0,40C23.71,49.55,23.71,10.45,50,10Zm0,50c26.29.45,26.29,39.55,0,40C23.71,99.55,23.71,60.45,50,60Zm0,50c26.29.45,26.29,39.55,0,40C23.71,149.55,23.71,110.45,50,110Zm0,50c26.29.45,26.29,39.55,0,40C23.71,199.55,23.71,160.45,50,160Zm0,50c26.29.45,26.29,39.55,0,40C23.71,249.55,23.71,210.45,50,210Zm0,50c26.29.45,26.29,39.55,0,40C23.71,299.55,23.71,260.45,50,260Z"/></g></g><g id="Capa_2-23" data-name="Capa 2"><g id="svg3204-22" data-name="svg3204"><rect class="cls-2" x="525.02" width="10.53" height="309.29"/><path id="rect3240-3-3-4" class="cls-3" d="M534,0c8.86,0,16,8.9,16,20V309.29H530V0Z"/></g></g><rect class="cls-2" x="525" y="309" width="11" height="151"/><rect class="cls-3" x="530" y="309" width="20" height="151"/><g id="Capa_2-24" data-name="Capa 2"><g id="svg3204-23" data-name="svg3204"><rect class="cls-2" x="14.47" width="10.53" height="309.29"/><path id="rect3240-3-3-4-2" data-name="rect3240-3-3-4" class="cls-3" d="M20,0V309.29H0V20C0,8.9,7.14,0,16,0Z"/></g></g><rect class="cls-2" x="14.02" y="309" width="11" height="151" transform="translate(39.03 769) rotate(-180)"/><rect class="cls-3" x="0.02" y="309" width="20" height="151" transform="translate(20.03 769) rotate(-180)"/></g></g></svg>